<svg version="1.0" id="Layer_1" x="0px" y="0px" xmlns="http://www.w3.org/2000/svg" width="300.000000pt" height="300.000000pt" viewBox="0 0 300.000000 300.000000" preserveAspectRatio="xMidYMid meet">
<style type="text/css">
	.st0{fill:url(#SVGID_1_);}
</style>
		<g transform="translate(0.000000,300.000000) scale(0.100000,-0.100000)" fill="#000000" stroke="none">
<path d="M1436 2377 c-61 -34 -76 -74 -76 -192 l0 -101 35 -17 35 -17 0 106 c0 119 14 159 57 170 26 7 28 6 567 -261 124 -61 126 -70 36 -135 -154 -109 -264 -180 -281 -180 -10 0 -183 82 -385 183 -317 158 -372 182 -411 181 -47 -1 -83 -21 -117 -68 -20 -26 -21 -42 -24 -314 -2 -262 -1 -290 16 -322 16 -32 51 -52 358 -207 369 -187 386 -193 454 -152 19 12 99 66 177 121 171 119 193 149 158 219 -13 24 -68 56 -336 189 -176 88 -324 158 -330 155 -5 -4 -9 -88 -9 -199 l0 -192 35 -17 35 -17 0 163 0 163 276 -139 c208 -104 274 -142 272 -154 -2 -9 -32 -37 -68 -63 -154 -110 -264 -180 -281 -180 -24 0 -647 308 -671 332 -17 17 -18 40 -18 287 0 266 0 270 23 295 12 13 32 27 43 31 16 4 125 -46 393 -180 287 -143 380 -185 410 -185 42 0 80 22 277 161 120 85 144 109 144 147 0 65 -14 74 -361 247 -222 111 -340 165 -362 165 -18 0 -50 -10 -71 -23z"/>
			<path d="M870 977 c0 -320 1 -325 60 -365 62 -42 94 -31 288 104 184 128 212 158 212 231 0 32 -5 42 -29 56 -16 9 -32 17 -35 17 -3 0 -6 -19 -6 -42 0 -24 -3 -53 -6 -65 -7 -25 -332 -253 -361 -253 -11 0 -27 8 -36 18 -15 16 -17 51 -17 284 l0 266 -35 21 -35 20 0 -292z"/>
</g>
</svg>