<svg version="1.0" id="Layer_1" xmlns="http://www.w3.org/2000/svg" width="100" height="100" viewBox="0 0 276 220" preserveAspectRatio="xMidYMid meet">
<g transform="translate(0.000000,225.000000) scale(0.100000,-0.100000)" fill="#fff" stroke="none">
	<path d="M1441 1784 c-50 -35 -51 -46 -51 -586 0 -277 -4 -509 -8 -515 -4 -7 -64 -51 -132 -97 -168 -116 -160 -123 -160 139 l0 204 -30 16 -30 16 0 -231 0 -231 25 -24 c18 -19 35 -25 65 -25 36 0 59 12 165 85 68 47 133 97 145 112 20 25 20 37 20 539 0 282 3 520 6 529 4 9 18 21 31 26 20 7 62 -10 263 -111 132 -66 240 -126 240 -133 -1 -15 -239 -177 -262 -177 -10 0 -61 23 -115 50 -54 28 -100 50 -104 50 -3 0 -6 -14 -5 -31 1 -30 7 -35 101 -81 133 -66 137 -65 304 51 208 146 206 150 -124 318 -254 129 -294 142 -344 107z"/>
	<path d="M1064 1556 l-34 -34 0 -225 c0 -213 1 -226 21 -251 17 -21 262 -156 284 -156 3 0 5 15 5 33 0 32 -3 34 -125 95 l-125 62 0 213 c0 152 3 216 12 225 21 21 56 13 148 -33 l90 -45 0 33 c0 31 -4 35 -85 75 -108 53 -144 55 -191 8z"/>
	<path d="M1500 1230 c0 -29 7 -33 175 -118 121 -60 175 -92 173 -102 -3 -15 -194 -153 -236 -170 -17 -8 -33 -5 -62 10 -50 26 -50 26 -50 -10 0 -59 80 -85 150 -47 60 32 220 144 243 169 24 29 22 80 -5 105 -22 20 -362 193 -380 193 -4 0 -8 -14 -8 -30z"/>
</g>
</svg>